<svg xmlns="http://www.w3.org/2000/svg" viewBox="-14.5 -16.1 29.2 31.8" width="800" height="800">
  <polygon points="-10.12,-6.93 -11.06,-5.30 -12.94,-5.30 -13.88,-6.93 -12.94,-8.55 -11.06,-8.55" fill="rgb(179,179,179)" stroke="none" opacity="0.9"/>
  <polygon points="-10.71,0.00 -11.35,1.12 -12.65,1.12 -13.29,-0.00 -12.65,-1.12 -11.35,-1.12" fill="rgb(145,145,145)" stroke="none" opacity="0.9"/>
  <polygon points="-11.16,6.93 -11.58,7.66 -12.42,7.66 -12.84,6.93 -12.42,6.20 -11.58,6.20" fill="rgb(124,124,124)" stroke="none" opacity="0.9"/>
  <polygon points="-4.11,-10.39 -5.06,-8.76 -6.94,-8.76 -7.89,-10.39 -6.94,-12.03 -5.06,-12.03" fill="rgb(190,190,190)" stroke="none" opacity="0.9"/>
  <polygon points="-4.28,-3.46 -5.14,-1.97 -6.86,-1.97 -7.72,-3.46 -6.86,-4.96 -5.14,-4.96" fill="rgb(193,193,193)" stroke="none" opacity="0.9"/>
  <polygon points="-5.04,3.46 -5.52,4.30 -6.48,4.30 -6.96,3.46 -6.48,2.63 -5.52,2.63" fill="rgb(167,167,167)" stroke="none" opacity="0.9"/>
  <polygon points="-4.88,10.39 -5.44,11.36 -6.56,11.36 -7.12,10.39 -6.56,9.42 -5.44,9.42" fill="rgb(142,142,142)" stroke="none" opacity="0.9"/>
  <polygon points="1.89,-13.86 0.94,-12.22 -0.94,-12.22 -1.89,-13.86 -0.94,-15.49 0.94,-15.49" fill="rgb(206,206,206)" stroke="none" opacity="0.9"/>
  <polygon points="1.91,-6.93 0.96,-5.27 -0.96,-5.27 -1.91,-6.93 -0.96,-8.59 0.96,-8.59" fill="rgb(182,182,182)" stroke="none" opacity="0.9"/>
  <polygon points="1.40,0.00 0.70,1.21 -0.70,1.21 -1.40,-0.00 -0.70,-1.21 0.70,-1.21" fill="rgb(174,174,174)" stroke="none" opacity="0.9"/>
  <polygon points="1.25,6.93 0.62,8.01 -0.62,8.01 -1.25,6.93 -0.62,5.85 0.62,5.85" fill="rgb(161,161,161)" stroke="none" opacity="0.9"/>
  <polygon points="1.39,13.86 0.69,15.06 -0.69,15.06 -1.39,13.86 -0.69,12.65 0.69,12.65" fill="rgb(150,150,150)" stroke="none" opacity="0.9"/>
  <polygon points="7.74,-10.39 6.87,-8.88 5.13,-8.88 4.26,-10.39 5.13,-11.90 6.87,-11.90" fill="rgb(220,220,220)" stroke="none" opacity="0.9"/>
  <polygon points="7.90,-3.46 6.95,-1.82 5.05,-1.82 4.10,-3.46 5.05,-5.11 6.95,-5.11" fill="rgb(169,169,169)" stroke="none" opacity="0.9"/>
  <polygon points="7.27,3.46 6.64,4.57 5.36,4.57 4.73,3.46 5.36,2.36 6.64,2.36" fill="rgb(162,162,162)" stroke="none" opacity="0.9"/>
  <polygon points="7.72,10.39 6.86,11.88 5.14,11.88 4.28,10.39 5.14,8.90 6.86,8.90" fill="rgb(155,155,155)" stroke="none" opacity="0.9"/>
  <polygon points="14.16,-6.93 13.08,-5.06 10.92,-5.06 9.84,-6.93 10.92,-8.80 13.08,-8.80" fill="rgb(205,205,205)" stroke="none" opacity="0.9"/>
  <polygon points="13.88,0.00 12.94,1.63 11.06,1.63 10.12,-0.00 11.06,-1.63 12.94,-1.63" fill="rgb(189,189,189)" stroke="none" opacity="0.9"/>
  <polygon points="13.53,6.93 12.77,8.26 11.23,8.26 10.47,6.93 11.23,5.60 12.77,5.60" fill="rgb(196,196,196)" stroke="none" opacity="0.9"/>
  <polygon points="-10.12,-6.93 -11.06,-5.30 -12.94,-5.30 -13.88,-6.93 -12.94,-8.55 -11.06,-8.55" fill="none" stroke="gray" stroke-width="0.12" stroke-linejoin="round"/>
  <polygon points="-10.71,0.00 -11.35,1.12 -12.65,1.12 -13.29,-0.00 -12.65,-1.12 -11.35,-1.12" fill="none" stroke="gray" stroke-width="0.12" stroke-linejoin="round"/>
  <polygon points="-11.16,6.93 -11.58,7.66 -12.42,7.66 -12.84,6.93 -12.42,6.20 -11.58,6.20" fill="none" stroke="gray" stroke-width="0.12" stroke-linejoin="round"/>
  <polygon points="-4.11,-10.39 -5.06,-8.76 -6.94,-8.76 -7.89,-10.39 -6.94,-12.03 -5.06,-12.03" fill="none" stroke="gray" stroke-width="0.12" stroke-linejoin="round"/>
  <polygon points="-4.28,-3.46 -5.14,-1.97 -6.86,-1.97 -7.72,-3.46 -6.86,-4.96 -5.14,-4.96" fill="none" stroke="gray" stroke-width="0.12" stroke-linejoin="round"/>
  <polygon points="-5.04,3.46 -5.52,4.30 -6.48,4.30 -6.96,3.46 -6.48,2.63 -5.52,2.63" fill="none" stroke="gray" stroke-width="0.12" stroke-linejoin="round"/>
  <polygon points="-4.88,10.39 -5.44,11.36 -6.56,11.36 -7.12,10.39 -6.56,9.42 -5.44,9.42" fill="none" stroke="gray" stroke-width="0.12" stroke-linejoin="round"/>
  <polygon points="1.89,-13.86 0.94,-12.22 -0.94,-12.22 -1.89,-13.86 -0.94,-15.49 0.94,-15.49" fill="none" stroke="gray" stroke-width="0.12" stroke-linejoin="round"/>
  <polygon points="1.91,-6.93 0.96,-5.27 -0.96,-5.27 -1.91,-6.93 -0.96,-8.59 0.96,-8.59" fill="none" stroke="gray" stroke-width="0.12" stroke-linejoin="round"/>
  <polygon points="1.40,0.00 0.70,1.21 -0.70,1.21 -1.40,-0.00 -0.70,-1.21 0.70,-1.21" fill="none" stroke="gray" stroke-width="0.12" stroke-linejoin="round"/>
  <polygon points="1.25,6.93 0.62,8.01 -0.62,8.01 -1.25,6.93 -0.62,5.85 0.62,5.85" fill="none" stroke="gray" stroke-width="0.12" stroke-linejoin="round"/>
  <polygon points="1.39,13.86 0.69,15.06 -0.69,15.06 -1.39,13.86 -0.69,12.65 0.69,12.65" fill="none" stroke="gray" stroke-width="0.12" stroke-linejoin="round"/>
  <polygon points="7.74,-10.39 6.87,-8.88 5.13,-8.88 4.26,-10.39 5.13,-11.90 6.87,-11.90" fill="none" stroke="gray" stroke-width="0.12" stroke-linejoin="round"/>
  <polygon points="7.90,-3.46 6.95,-1.82 5.05,-1.82 4.10,-3.46 5.05,-5.11 6.95,-5.11" fill="none" stroke="gray" stroke-width="0.12" stroke-linejoin="round"/>
  <polygon points="7.27,3.46 6.64,4.57 5.36,4.57 4.73,3.46 5.36,2.36 6.64,2.36" fill="none" stroke="gray" stroke-width="0.12" stroke-linejoin="round"/>
  <polygon points="7.72,10.39 6.86,11.88 5.14,11.88 4.28,10.39 5.14,8.90 6.86,8.90" fill="none" stroke="gray" stroke-width="0.12" stroke-linejoin="round"/>
  <polygon points="14.16,-6.93 13.08,-5.06 10.92,-5.06 9.84,-6.93 10.92,-8.80 13.08,-8.80" fill="none" stroke="gray" stroke-width="0.12" stroke-linejoin="round"/>
  <polygon points="13.88,0.00 12.94,1.63 11.06,1.63 10.12,-0.00 11.06,-1.63 12.94,-1.63" fill="none" stroke="gray" stroke-width="0.12" stroke-linejoin="round"/>
  <polygon points="13.53,6.93 12.77,8.26 11.23,8.26 10.47,6.93 11.23,5.60 12.77,5.60" fill="none" stroke="gray" stroke-width="0.12" stroke-linejoin="round"/>
  <line x1="-10.12" y1="-6.93" x2="-6.86" y2="-4.96" stroke="gray" stroke-width="0.12" stroke-linecap="round"/>
  <line x1="-11.06" y1="-5.30" x2="-7.72" y2="-3.46" stroke="gray" stroke-width="0.12" stroke-linecap="round"/>
  <line x1="-10.71" y1="0.00" x2="-6.48" y2="2.63" stroke="gray" stroke-width="0.12" stroke-linecap="round"/>
  <line x1="-11.35" y1="1.12" x2="-6.96" y2="3.46" stroke="gray" stroke-width="0.12" stroke-linecap="round"/>
  <line x1="-12.65" y1="-1.12" x2="-12.94" y2="-5.30" stroke="gray" stroke-width="0.12" stroke-linecap="round"/>
  <line x1="-11.35" y1="-1.12" x2="-11.06" y2="-5.30" stroke="gray" stroke-width="0.12" stroke-linecap="round"/>
  <line x1="-11.16" y1="6.93" x2="-6.56" y2="9.42" stroke="gray" stroke-width="0.12" stroke-linecap="round"/>
  <line x1="-11.58" y1="7.66" x2="-7.12" y2="10.39" stroke="gray" stroke-width="0.12" stroke-linecap="round"/>
  <line x1="-12.42" y1="6.20" x2="-12.65" y2="1.12" stroke="gray" stroke-width="0.12" stroke-linecap="round"/>
  <line x1="-11.58" y1="6.20" x2="-11.35" y2="1.12" stroke="gray" stroke-width="0.12" stroke-linecap="round"/>
  <line x1="-4.11" y1="-10.39" x2="-0.96" y2="-8.59" stroke="gray" stroke-width="0.12" stroke-linecap="round"/>
  <line x1="-5.06" y1="-8.76" x2="-1.91" y2="-6.93" stroke="gray" stroke-width="0.12" stroke-linecap="round"/>
  <line x1="-6.94" y1="-8.76" x2="-10.12" y2="-6.93" stroke="gray" stroke-width="0.12" stroke-linecap="round"/>
  <line x1="-7.89" y1="-10.39" x2="-11.06" y2="-8.55" stroke="gray" stroke-width="0.12" stroke-linecap="round"/>
  <line x1="-4.28" y1="-3.46" x2="-0.70" y2="-1.21" stroke="gray" stroke-width="0.12" stroke-linecap="round"/>
  <line x1="-5.14" y1="-1.97" x2="-1.40" y2="-0.00" stroke="gray" stroke-width="0.12" stroke-linecap="round"/>
  <line x1="-6.86" y1="-1.97" x2="-10.71" y2="0.00" stroke="gray" stroke-width="0.12" stroke-linecap="round"/>
  <line x1="-7.72" y1="-3.46" x2="-11.35" y2="-1.12" stroke="gray" stroke-width="0.12" stroke-linecap="round"/>
  <line x1="-6.86" y1="-4.96" x2="-6.94" y2="-8.76" stroke="gray" stroke-width="0.12" stroke-linecap="round"/>
  <line x1="-5.14" y1="-4.96" x2="-5.06" y2="-8.76" stroke="gray" stroke-width="0.12" stroke-linecap="round"/>
  <line x1="-5.04" y1="3.46" x2="-0.62" y2="5.85" stroke="gray" stroke-width="0.12" stroke-linecap="round"/>
  <line x1="-5.52" y1="4.30" x2="-1.25" y2="6.93" stroke="gray" stroke-width="0.12" stroke-linecap="round"/>
  <line x1="-6.48" y1="4.30" x2="-11.16" y2="6.93" stroke="gray" stroke-width="0.12" stroke-linecap="round"/>
  <line x1="-6.96" y1="3.46" x2="-11.58" y2="6.20" stroke="gray" stroke-width="0.12" stroke-linecap="round"/>
  <line x1="-6.48" y1="2.63" x2="-6.86" y2="-1.97" stroke="gray" stroke-width="0.12" stroke-linecap="round"/>
  <line x1="-5.52" y1="2.63" x2="-5.14" y2="-1.97" stroke="gray" stroke-width="0.12" stroke-linecap="round"/>
  <line x1="-4.88" y1="10.39" x2="-0.69" y2="12.65" stroke="gray" stroke-width="0.12" stroke-linecap="round"/>
  <line x1="-5.44" y1="11.36" x2="-1.39" y2="13.86" stroke="gray" stroke-width="0.12" stroke-linecap="round"/>
  <line x1="-6.56" y1="9.42" x2="-6.48" y2="4.30" stroke="gray" stroke-width="0.12" stroke-linecap="round"/>
  <line x1="-5.44" y1="9.42" x2="-5.52" y2="4.30" stroke="gray" stroke-width="0.12" stroke-linecap="round"/>
  <line x1="1.89" y1="-13.86" x2="5.13" y2="-11.90" stroke="gray" stroke-width="0.12" stroke-linecap="round"/>
  <line x1="0.94" y1="-12.22" x2="4.26" y2="-10.39" stroke="gray" stroke-width="0.12" stroke-linecap="round"/>
  <line x1="-0.94" y1="-12.22" x2="-4.11" y2="-10.39" stroke="gray" stroke-width="0.12" stroke-linecap="round"/>
  <line x1="-1.89" y1="-13.86" x2="-5.06" y2="-12.03" stroke="gray" stroke-width="0.12" stroke-linecap="round"/>
  <line x1="1.91" y1="-6.93" x2="5.05" y2="-5.11" stroke="gray" stroke-width="0.12" stroke-linecap="round"/>
  <line x1="0.96" y1="-5.27" x2="4.10" y2="-3.46" stroke="gray" stroke-width="0.12" stroke-linecap="round"/>
  <line x1="-0.96" y1="-5.27" x2="-4.28" y2="-3.46" stroke="gray" stroke-width="0.12" stroke-linecap="round"/>
  <line x1="-1.91" y1="-6.93" x2="-5.14" y2="-4.96" stroke="gray" stroke-width="0.12" stroke-linecap="round"/>
  <line x1="-0.96" y1="-8.59" x2="-0.94" y2="-12.22" stroke="gray" stroke-width="0.12" stroke-linecap="round"/>
  <line x1="0.96" y1="-8.59" x2="0.94" y2="-12.22" stroke="gray" stroke-width="0.12" stroke-linecap="round"/>
  <line x1="1.40" y1="0.00" x2="5.36" y2="2.36" stroke="gray" stroke-width="0.12" stroke-linecap="round"/>
  <line x1="0.70" y1="1.21" x2="4.73" y2="3.46" stroke="gray" stroke-width="0.12" stroke-linecap="round"/>
  <line x1="-0.70" y1="1.21" x2="-5.04" y2="3.46" stroke="gray" stroke-width="0.12" stroke-linecap="round"/>
  <line x1="-1.40" y1="-0.00" x2="-5.52" y2="2.63" stroke="gray" stroke-width="0.12" stroke-linecap="round"/>
  <line x1="-0.70" y1="-1.21" x2="-0.96" y2="-5.27" stroke="gray" stroke-width="0.12" stroke-linecap="round"/>
  <line x1="0.70" y1="-1.21" x2="0.96" y2="-5.27" stroke="gray" stroke-width="0.12" stroke-linecap="round"/>
  <line x1="1.25" y1="6.93" x2="5.14" y2="8.90" stroke="gray" stroke-width="0.12" stroke-linecap="round"/>
  <line x1="0.62" y1="8.01" x2="4.28" y2="10.39" stroke="gray" stroke-width="0.12" stroke-linecap="round"/>
  <line x1="-0.62" y1="8.01" x2="-4.88" y2="10.39" stroke="gray" stroke-width="0.12" stroke-linecap="round"/>
  <line x1="-1.25" y1="6.93" x2="-5.44" y2="9.42" stroke="gray" stroke-width="0.12" stroke-linecap="round"/>
  <line x1="-0.62" y1="5.85" x2="-0.70" y2="1.21" stroke="gray" stroke-width="0.12" stroke-linecap="round"/>
  <line x1="0.62" y1="5.85" x2="0.70" y2="1.21" stroke="gray" stroke-width="0.12" stroke-linecap="round"/>
  <line x1="-0.69" y1="12.65" x2="-0.62" y2="8.01" stroke="gray" stroke-width="0.12" stroke-linecap="round"/>
  <line x1="0.69" y1="12.65" x2="0.62" y2="8.01" stroke="gray" stroke-width="0.12" stroke-linecap="round"/>
  <line x1="7.74" y1="-10.39" x2="10.92" y2="-8.80" stroke="gray" stroke-width="0.12" stroke-linecap="round"/>
  <line x1="6.87" y1="-8.88" x2="9.84" y2="-6.93" stroke="gray" stroke-width="0.12" stroke-linecap="round"/>
  <line x1="5.13" y1="-8.88" x2="1.91" y2="-6.93" stroke="gray" stroke-width="0.12" stroke-linecap="round"/>
  <line x1="4.26" y1="-10.39" x2="0.96" y2="-8.59" stroke="gray" stroke-width="0.12" stroke-linecap="round"/>
  <line x1="7.90" y1="-3.46" x2="11.06" y2="-1.63" stroke="gray" stroke-width="0.12" stroke-linecap="round"/>
  <line x1="6.95" y1="-1.82" x2="10.12" y2="-0.00" stroke="gray" stroke-width="0.12" stroke-linecap="round"/>
  <line x1="5.05" y1="-1.82" x2="1.40" y2="0.00" stroke="gray" stroke-width="0.12" stroke-linecap="round"/>
  <line x1="4.10" y1="-3.46" x2="0.70" y2="-1.21" stroke="gray" stroke-width="0.12" stroke-linecap="round"/>
  <line x1="5.05" y1="-5.11" x2="5.13" y2="-8.88" stroke="gray" stroke-width="0.12" stroke-linecap="round"/>
  <line x1="6.95" y1="-5.11" x2="6.87" y2="-8.88" stroke="gray" stroke-width="0.12" stroke-linecap="round"/>
  <line x1="7.27" y1="3.46" x2="11.23" y2="5.60" stroke="gray" stroke-width="0.12" stroke-linecap="round"/>
  <line x1="6.64" y1="4.57" x2="10.47" y2="6.93" stroke="gray" stroke-width="0.12" stroke-linecap="round"/>
  <line x1="5.36" y1="4.57" x2="1.25" y2="6.93" stroke="gray" stroke-width="0.12" stroke-linecap="round"/>
  <line x1="4.73" y1="3.46" x2="0.62" y2="5.85" stroke="gray" stroke-width="0.12" stroke-linecap="round"/>
  <line x1="5.36" y1="2.36" x2="5.05" y2="-1.82" stroke="gray" stroke-width="0.12" stroke-linecap="round"/>
  <line x1="6.64" y1="2.36" x2="6.95" y2="-1.82" stroke="gray" stroke-width="0.12" stroke-linecap="round"/>
  <line x1="5.14" y1="11.88" x2="1.39" y2="13.86" stroke="gray" stroke-width="0.12" stroke-linecap="round"/>
  <line x1="4.28" y1="10.39" x2="0.69" y2="12.65" stroke="gray" stroke-width="0.12" stroke-linecap="round"/>
  <line x1="5.14" y1="8.90" x2="5.36" y2="4.57" stroke="gray" stroke-width="0.12" stroke-linecap="round"/>
  <line x1="6.86" y1="8.90" x2="6.64" y2="4.57" stroke="gray" stroke-width="0.12" stroke-linecap="round"/>
  <line x1="10.92" y1="-5.06" x2="7.90" y2="-3.46" stroke="gray" stroke-width="0.12" stroke-linecap="round"/>
  <line x1="9.84" y1="-6.93" x2="6.95" y2="-5.11" stroke="gray" stroke-width="0.12" stroke-linecap="round"/>
  <line x1="11.06" y1="1.63" x2="7.27" y2="3.46" stroke="gray" stroke-width="0.12" stroke-linecap="round"/>
  <line x1="10.12" y1="-0.00" x2="6.64" y2="2.36" stroke="gray" stroke-width="0.12" stroke-linecap="round"/>
  <line x1="11.06" y1="-1.63" x2="10.92" y2="-5.06" stroke="gray" stroke-width="0.12" stroke-linecap="round"/>
  <line x1="12.94" y1="-1.63" x2="13.08" y2="-5.06" stroke="gray" stroke-width="0.12" stroke-linecap="round"/>
  <line x1="11.23" y1="8.26" x2="7.72" y2="10.39" stroke="gray" stroke-width="0.12" stroke-linecap="round"/>
  <line x1="10.47" y1="6.93" x2="6.86" y2="8.90" stroke="gray" stroke-width="0.12" stroke-linecap="round"/>
  <line x1="11.23" y1="5.60" x2="11.06" y2="1.63" stroke="gray" stroke-width="0.12" stroke-linecap="round"/>
  <line x1="12.77" y1="5.60" x2="12.94" y2="1.63" stroke="gray" stroke-width="0.12" stroke-linecap="round"/>
</svg>
