<svg xmlns="http://www.w3.org/2000/svg" viewBox="-41.7 -46.5 83.9 92.9" width="800" height="800">
<rect x="-41.7" y="-46.5" width="83.9" height="92.9" fill="#050810"/>
  <polygon points="-34.36,-20.78 -35.18,-19.37 -36.82,-19.37 -37.64,-20.78 -36.82,-22.20 -35.18,-22.20" fill="rgb(68,123,44)" stroke="#1a3a1a" stroke-width="0.08" opacity="0.9"/>
  <polygon points="-34.39,-13.86 -35.20,-12.46 -36.80,-12.46 -37.61,-13.86 -36.80,-15.25 -35.20,-15.25" fill="rgb(70,128,45)" stroke="#1a3a1a" stroke-width="0.08" opacity="0.9"/>
  <polygon points="-34.54,-6.93 -35.27,-5.67 -36.73,-5.67 -37.46,-6.93 -36.73,-8.19 -35.27,-8.19" fill="rgb(84,160,52)" stroke="#1a3a1a" stroke-width="0.08" opacity="0.9"/>
  <polygon points="-34.94,0.00 -35.47,0.91 -36.53,0.91 -37.06,-0.00 -36.53,-0.91 -35.47,-0.91" fill="rgb(85,161,52)" stroke="#1a3a1a" stroke-width="0.08" opacity="0.9"/>
  <polygon points="-34.94,6.93 -35.47,7.85 -36.53,7.85 -37.06,6.93 -36.53,6.01 -35.47,6.01" fill="rgb(85,162,52)" stroke="#1a3a1a" stroke-width="0.08" opacity="0.9"/>
  <polygon points="-34.31,13.86 -35.15,15.32 -36.85,15.32 -37.69,13.86 -36.85,12.39 -35.15,12.39" fill="rgb(91,175,55)" stroke="#1a3a1a" stroke-width="0.08" opacity="0.9"/>
  <polygon points="-34.39,20.78 -35.19,22.18 -36.81,22.18 -37.61,20.78 -36.81,19.39 -35.19,19.39" fill="rgb(89,172,54)" stroke="#1a3a1a" stroke-width="0.08" opacity="0.9"/>
  <polygon points="-28.09,-24.25 -29.05,-22.60 -30.95,-22.60 -31.91,-24.25 -30.95,-25.90 -29.05,-25.90" fill="rgb(85,162,52)" stroke="#1a3a1a" stroke-width="0.08" opacity="0.9"/>
  <polygon points="-28.04,-17.32 -29.02,-15.62 -30.98,-15.62 -31.96,-17.32 -30.98,-19.02 -29.02,-19.02" fill="rgb(77,145,48)" stroke="#1a3a1a" stroke-width="0.08" opacity="0.9"/>
  <polygon points="-28.27,-10.39 -29.13,-8.89 -30.87,-8.89 -31.73,-10.39 -30.87,-11.89 -29.13,-11.89" fill="rgb(77,144,48)" stroke="#1a3a1a" stroke-width="0.08" opacity="0.9"/>
  <polygon points="-28.77,-3.46 -29.38,-2.40 -30.62,-2.40 -31.23,-3.46 -30.62,-4.53 -29.38,-4.53" fill="rgb(77,144,48)" stroke="#1a3a1a" stroke-width="0.08" opacity="0.9"/>
  <polygon points="-28.65,3.46 -29.32,4.64 -30.68,4.64 -31.35,3.46 -30.68,2.29 -29.32,2.29" fill="rgb(74,137,47)" stroke="#1a3a1a" stroke-width="0.08" opacity="0.9"/>
  <polygon points="-28.53,10.39 -29.26,11.67 -30.74,11.67 -31.47,10.39 -30.74,9.12 -29.26,9.12" fill="rgb(82,155,51)" stroke="#1a3a1a" stroke-width="0.08" opacity="0.9"/>
  <polygon points="-28.50,17.32 -29.25,18.62 -30.75,18.62 -31.50,17.32 -30.75,16.02 -29.25,16.02" fill="rgb(84,160,52)" stroke="#1a3a1a" stroke-width="0.08" opacity="0.9"/>
  <polygon points="-28.42,24.25 -29.21,25.62 -30.79,25.62 -31.58,24.25 -30.79,22.88 -29.21,22.88" fill="rgb(86,165,53)" stroke="#1a3a1a" stroke-width="0.08" opacity="0.9"/>
  <polygon points="-22.55,-27.71 -23.27,-26.46 -24.73,-26.46 -25.45,-27.71 -24.73,-28.97 -23.27,-28.97" fill="rgb(89,171,54)" stroke="#1a3a1a" stroke-width="0.08" opacity="0.9"/>
  <polygon points="-21.97,-20.78 -22.99,-19.03 -25.01,-19.03 -26.03,-20.78 -25.01,-22.54 -22.99,-22.54" fill="rgb(91,176,55)" stroke="#1a3a1a" stroke-width="0.08" opacity="0.9"/>
  <polygon points="-22.30,-13.86 -23.15,-12.39 -24.85,-12.39 -25.70,-13.86 -24.85,-15.32 -23.15,-15.32" fill="rgb(85,162,52)" stroke="#1a3a1a" stroke-width="0.08" opacity="0.9"/>
  <polygon points="-22.21,-6.93 -23.10,-5.38 -24.90,-5.38 -25.79,-6.93 -24.90,-8.48 -23.10,-8.48" fill="rgb(73,134,46)" stroke="#1a3a1a" stroke-width="0.08" opacity="0.9"/>
  <polygon points="-22.15,0.00 -23.08,1.60 -24.92,1.60 -25.85,-0.00 -24.92,-1.60 -23.08,-1.60" fill="rgb(67,121,43)" stroke="#1a3a1a" stroke-width="0.08" opacity="0.9"/>
  <polygon points="-22.53,6.93 -23.26,8.20 -24.74,8.20 -25.47,6.93 -24.74,5.65 -23.26,5.65" fill="rgb(74,138,47)" stroke="#1a3a1a" stroke-width="0.08" opacity="0.9"/>
  <polygon points="-22.54,13.86 -23.27,15.12 -24.73,15.12 -25.46,13.86 -24.73,12.59 -23.27,12.59" fill="rgb(76,142,48)" stroke="#1a3a1a" stroke-width="0.08" opacity="0.9"/>
  <polygon points="-22.66,20.78 -23.33,21.94 -24.67,21.94 -25.34,20.78 -24.67,19.63 -23.33,19.63" fill="rgb(82,156,51)" stroke="#1a3a1a" stroke-width="0.08" opacity="0.9"/>
  <polygon points="-22.58,27.71 -23.29,28.94 -24.71,28.94 -25.42,27.71 -24.71,26.48 -23.29,26.48" fill="rgb(84,161,52)" stroke="#1a3a1a" stroke-width="0.08" opacity="0.9"/>
  <polygon points="-16.35,-31.18 -17.17,-29.74 -18.83,-29.74 -19.65,-31.18 -18.83,-32.61 -17.17,-32.61" fill="rgb(87,166,53)" stroke="#1a3a1a" stroke-width="0.08" opacity="0.9"/>
  <polygon points="-16.45,-24.25 -17.22,-22.91 -18.78,-22.91 -19.55,-24.25 -18.78,-25.59 -17.22,-25.59" fill="rgb(92,178,56)" stroke="#1a3a1a" stroke-width="0.08" opacity="0.9"/>
  <polygon points="-16.24,-17.32 -17.12,-15.80 -18.88,-15.80 -19.76,-17.32 -18.88,-18.84 -17.12,-18.84" fill="rgb(97,189,58)" stroke="#1a3a1a" stroke-width="0.08" opacity="0.9"/>
  <polygon points="-16.15,-10.39 -17.08,-8.79 -18.92,-8.79 -19.85,-10.39 -18.92,-11.99 -17.08,-11.99" fill="rgb(85,161,52)" stroke="#1a3a1a" stroke-width="0.08" opacity="0.9"/>
  <polygon points="-16.22,-3.46 -17.11,-1.92 -18.89,-1.92 -19.78,-3.46 -18.89,-5.01 -17.11,-5.01" fill="rgb(75,139,47)" stroke="#1a3a1a" stroke-width="0.08" opacity="0.9"/>
  <polygon points="-16.64,3.46 -17.32,4.64 -18.68,4.64 -19.36,3.46 -18.68,2.29 -17.32,2.29" fill="rgb(65,117,42)" stroke="#1a3a1a" stroke-width="0.08" opacity="0.9"/>
  <polygon points="-16.72,10.39 -17.36,11.50 -18.64,11.50 -19.28,10.39 -18.64,9.29 -17.36,9.29" fill="rgb(69,127,44)" stroke="#1a3a1a" stroke-width="0.08" opacity="0.9"/>
  <polygon points="-16.36,17.32 -17.18,18.74 -18.82,18.74 -19.64,17.32 -18.82,15.90 -17.18,15.90" fill="rgb(77,143,48)" stroke="#1a3a1a" stroke-width="0.08" opacity="0.9"/>
  <polygon points="-16.39,24.25 -17.19,25.65 -18.81,25.65 -19.61,24.25 -18.81,22.85 -17.19,22.85" fill="rgb(83,158,51)" stroke="#1a3a1a" stroke-width="0.08" opacity="0.9"/>
  <polygon points="-16.53,31.18 -17.26,32.45 -18.74,32.45 -19.47,31.18 -18.74,29.90 -17.26,29.90" fill="rgb(84,159,52)" stroke="#1a3a1a" stroke-width="0.08" opacity="0.9"/>
  <polygon points="-10.94,-34.64 -11.47,-33.72 -12.53,-33.72 -13.06,-34.64 -12.53,-35.56 -11.47,-35.56" fill="rgb(92,178,56)" stroke="#1a3a1a" stroke-width="0.08" opacity="0.9"/>
  <polygon points="-10.77,-27.71 -11.39,-26.65 -12.61,-26.65 -13.23,-27.71 -12.61,-28.78 -11.39,-28.78" fill="rgb(99,193,59)" stroke="#1a3a1a" stroke-width="0.08" opacity="0.9"/>
  <polygon points="-10.49,-20.78 -11.24,-19.47 -12.76,-19.47 -13.51,-20.78 -12.76,-22.09 -11.24,-22.09" fill="rgb(94,182,57)" stroke="#1a3a1a" stroke-width="0.08" opacity="0.9"/>
  <polygon points="-10.14,-13.86 -11.07,-12.24 -12.93,-12.24 -13.86,-13.86 -12.93,-15.47 -11.07,-15.47" fill="rgb(93,181,56)" stroke="#1a3a1a" stroke-width="0.08" opacity="0.9"/>
  <polygon points="-10.12,-6.93 -11.06,-5.30 -12.94,-5.30 -13.88,-6.93 -12.94,-8.55 -11.06,-8.55" fill="rgb(91,175,55)" stroke="#1a3a1a" stroke-width="0.08" opacity="0.9"/>
  <polygon points="-10.71,0.00 -11.35,1.12 -12.65,1.12 -13.29,-0.00 -12.65,-1.12 -11.35,-1.12" fill="rgb(76,142,48)" stroke="#1a3a1a" stroke-width="0.08" opacity="0.9"/>
  <polygon points="-11.16,6.93 -11.58,7.66 -12.42,7.66 -12.84,6.93 -12.42,6.20 -11.58,6.20" fill="rgb(67,122,43)" stroke="#1a3a1a" stroke-width="0.08" opacity="0.9"/>
  <polygon points="-10.72,13.86 -11.36,14.97 -12.64,14.97 -13.28,13.86 -12.64,12.75 -11.36,12.75" fill="rgb(72,132,46)" stroke="#1a3a1a" stroke-width="0.08" opacity="0.9"/>
  <polygon points="-10.52,20.78 -11.26,22.07 -12.74,22.07 -13.48,20.78 -12.74,19.50 -11.26,19.50" fill="rgb(71,130,45)" stroke="#1a3a1a" stroke-width="0.08" opacity="0.9"/>
  <polygon points="-10.49,27.71 -11.24,29.02 -12.76,29.02 -13.51,27.71 -12.76,26.40 -11.24,26.40" fill="rgb(75,139,47)" stroke="#1a3a1a" stroke-width="0.08" opacity="0.9"/>
  <polygon points="-10.54,34.64 -11.27,35.90 -12.73,35.90 -13.46,34.64 -12.73,33.38 -11.27,33.38" fill="rgb(79,149,49)" stroke="#1a3a1a" stroke-width="0.08" opacity="0.9"/>
  <polygon points="-5.17,-38.11 -5.58,-37.39 -6.42,-37.39 -6.83,-38.11 -6.42,-38.82 -5.58,-38.82" fill="rgb(98,192,59)" stroke="#1a3a1a" stroke-width="0.08" opacity="0.9"/>
  <polygon points="-5.00,-31.18 -5.50,-30.31 -6.50,-30.31 -7.00,-31.18 -6.50,-32.04 -5.50,-32.04" fill="rgb(101,198,60)" stroke="#1a3a1a" stroke-width="0.08" opacity="0.9"/>
  <polygon points="-4.58,-24.25 -5.29,-23.02 -6.71,-23.02 -7.42,-24.25 -6.71,-25.48 -5.29,-25.48" fill="rgb(100,195,60)" stroke="#1a3a1a" stroke-width="0.08" opacity="0.9"/>
  <polygon points="-4.17,-17.32 -5.08,-15.73 -6.92,-15.73 -7.83,-17.32 -6.92,-18.91 -5.08,-18.91" fill="rgb(95,185,57)" stroke="#1a3a1a" stroke-width="0.08" opacity="0.9"/>
  <polygon points="-4.11,-10.39 -5.06,-8.76 -6.94,-8.76 -7.89,-10.39 -6.94,-12.03 -5.06,-12.03" fill="rgb(95,185,57)" stroke="#1a3a1a" stroke-width="0.08" opacity="0.9"/>
  <polygon points="-4.28,-3.46 -5.14,-1.97 -6.86,-1.97 -7.72,-3.46 -6.86,-4.96 -5.14,-4.96" fill="rgb(97,189,58)" stroke="#1a3a1a" stroke-width="0.08" opacity="0.9"/>
  <polygon points="-5.04,3.46 -5.52,4.30 -6.48,4.30 -6.96,3.46 -6.48,2.63 -5.52,2.63" fill="rgb(86,163,53)" stroke="#1a3a1a" stroke-width="0.08" opacity="0.9"/>
  <polygon points="-4.88,10.39 -5.44,11.36 -6.56,11.36 -7.12,10.39 -6.56,9.42 -5.44,9.42" fill="rgb(75,139,47)" stroke="#1a3a1a" stroke-width="0.08" opacity="0.9"/>
  <polygon points="-4.90,17.32 -5.45,18.27 -6.55,18.27 -7.10,17.32 -6.55,16.37 -5.45,16.37" fill="rgb(69,125,44)" stroke="#1a3a1a" stroke-width="0.08" opacity="0.9"/>
  <polygon points="-4.72,24.25 -5.36,25.36 -6.64,25.36 -7.28,24.25 -6.64,23.14 -5.36,23.14" fill="rgb(63,112,41)" stroke="#1a3a1a" stroke-width="0.08" opacity="0.9"/>
  <polygon points="-4.51,31.18 -5.26,32.47 -6.74,32.47 -7.49,31.18 -6.74,29.89 -5.26,29.89" fill="rgb(64,114,42)" stroke="#1a3a1a" stroke-width="0.08" opacity="0.9"/>
  <polygon points="-4.82,38.11 -5.41,39.13 -6.59,39.13 -7.18,38.11 -6.59,37.08 -5.41,37.08" fill="rgb(78,146,49)" stroke="#1a3a1a" stroke-width="0.08" opacity="0.9"/>
  <polygon points="1.02,-41.57 0.51,-40.68 -0.51,-40.68 -1.02,-41.57 -0.51,-42.45 0.51,-42.45" fill="rgb(94,182,57)" stroke="#1a3a1a" stroke-width="0.08" opacity="0.9"/>
  <polygon points="1.21,-34.64 0.61,-33.59 -0.61,-33.59 -1.21,-34.64 -0.61,-35.69 0.61,-35.69" fill="rgb(101,199,60)" stroke="#1a3a1a" stroke-width="0.08" opacity="0.9"/>
  <polygon points="1.49,-27.71 0.75,-26.42 -0.75,-26.42 -1.49,-27.71 -0.75,-29.01 0.75,-29.01" fill="rgb(105,207,62)" stroke="#1a3a1a" stroke-width="0.08" opacity="0.9"/>
  <polygon points="1.75,-20.78 0.88,-19.27 -0.88,-19.27 -1.75,-20.78 -0.88,-22.30 0.88,-22.30" fill="rgb(105,207,62)" stroke="#1a3a1a" stroke-width="0.08" opacity="0.9"/>
  <polygon points="1.89,-13.86 0.94,-12.22 -0.94,-12.22 -1.89,-13.86 -0.94,-15.49 0.94,-15.49" fill="rgb(102,201,61)" stroke="#1a3a1a" stroke-width="0.08" opacity="0.9"/>
  <polygon points="1.91,-6.93 0.96,-5.27 -0.96,-5.27 -1.91,-6.93 -0.96,-8.59 0.96,-8.59" fill="rgb(92,177,56)" stroke="#1a3a1a" stroke-width="0.08" opacity="0.9"/>
  <polygon points="1.40,0.00 0.70,1.21 -0.70,1.21 -1.40,-0.00 -0.70,-1.21 0.70,-1.21" fill="rgb(89,170,54)" stroke="#1a3a1a" stroke-width="0.08" opacity="0.9"/>
  <polygon points="1.25,6.93 0.62,8.01 -0.62,8.01 -1.25,6.93 -0.62,5.85 0.62,5.85" fill="rgb(83,157,51)" stroke="#1a3a1a" stroke-width="0.08" opacity="0.9"/>
  <polygon points="1.39,13.86 0.69,15.06 -0.69,15.06 -1.39,13.86 -0.69,12.65 0.69,12.65" fill="rgb(78,147,49)" stroke="#1a3a1a" stroke-width="0.08" opacity="0.9"/>
  <polygon points="1.28,20.78 0.64,21.90 -0.64,21.90 -1.28,20.78 -0.64,19.67 0.64,19.67" fill="rgb(75,139,47)" stroke="#1a3a1a" stroke-width="0.08" opacity="0.9"/>
  <polygon points="1.43,27.71 0.71,28.95 -0.71,28.95 -1.43,27.71 -0.71,26.48 0.71,26.48" fill="rgb(63,113,41)" stroke="#1a3a1a" stroke-width="0.08" opacity="0.9"/>
  <polygon points="1.45,34.64 0.72,35.89 -0.72,35.89 -1.45,34.64 -0.72,33.39 0.72,33.39" fill="rgb(75,139,47)" stroke="#1a3a1a" stroke-width="0.08" opacity="0.9"/>
  <polygon points="0.99,41.57 0.50,42.43 -0.50,42.43 -0.99,41.57 -0.50,40.71 0.50,40.71" fill="rgb(83,156,51)" stroke="#1a3a1a" stroke-width="0.08" opacity="0.9"/>
  <polygon points="7.29,-38.11 6.64,-36.99 5.36,-36.99 4.71,-38.11 5.36,-39.22 6.64,-39.22" fill="rgb(99,194,59)" stroke="#1a3a1a" stroke-width="0.08" opacity="0.9"/>
  <polygon points="7.53,-31.18 6.76,-29.86 5.24,-29.86 4.47,-31.18 5.24,-32.50 6.76,-32.50" fill="rgb(112,224,66)" stroke="#1a3a1a" stroke-width="0.08" opacity="0.9"/>
  <polygon points="7.89,-24.25 6.94,-22.61 5.06,-22.61 4.11,-24.25 5.06,-25.88 6.94,-25.88" fill="rgb(116,231,68)" stroke="#1a3a1a" stroke-width="0.08" opacity="0.9"/>
  <polygon points="7.76,-17.32 6.88,-15.80 5.12,-15.80 4.24,-17.32 5.12,-18.85 6.88,-18.85" fill="rgb(113,226,66)" stroke="#1a3a1a" stroke-width="0.08" opacity="0.9"/>
  <polygon points="7.74,-10.39 6.87,-8.88 5.13,-8.88 4.26,-10.39 5.13,-11.90 6.87,-11.90" fill="rgb(108,214,64)" stroke="#1a3a1a" stroke-width="0.08" opacity="0.9"/>
  <polygon points="7.90,-3.46 6.95,-1.82 5.05,-1.82 4.10,-3.46 5.05,-5.11 6.95,-5.11" fill="rgb(86,165,53)" stroke="#1a3a1a" stroke-width="0.08" opacity="0.9"/>
  <polygon points="7.27,3.46 6.64,4.57 5.36,4.57 4.73,3.46 5.36,2.36 6.64,2.36" fill="rgb(83,158,51)" stroke="#1a3a1a" stroke-width="0.08" opacity="0.9"/>
  <polygon points="7.72,10.39 6.86,11.88 5.14,11.88 4.28,10.39 5.14,8.90 6.86,8.90" fill="rgb(81,152,50)" stroke="#1a3a1a" stroke-width="0.08" opacity="0.9"/>
  <polygon points="7.66,17.32 6.83,18.76 5.17,18.76 4.34,17.32 5.17,15.88 6.83,15.88" fill="rgb(82,155,51)" stroke="#1a3a1a" stroke-width="0.08" opacity="0.9"/>
  <polygon points="7.57,24.25 6.79,25.61 5.21,25.61 4.43,24.25 5.21,22.89 6.79,22.89" fill="rgb(80,150,50)" stroke="#1a3a1a" stroke-width="0.08" opacity="0.9"/>
  <polygon points="7.52,31.18 6.76,32.49 5.24,32.49 4.48,31.18 5.24,29.86 6.76,29.86" fill="rgb(75,140,47)" stroke="#1a3a1a" stroke-width="0.08" opacity="0.9"/>
  <polygon points="7.24,38.11 6.62,39.18 5.38,39.18 4.76,38.11 5.38,37.03 6.62,37.03" fill="rgb(82,156,51)" stroke="#1a3a1a" stroke-width="0.08" opacity="0.9"/>
  <polygon points="13.30,-34.64 12.65,-33.51 11.35,-33.51 10.70,-34.64 11.35,-35.77 12.65,-35.77" fill="rgb(104,205,62)" stroke="#1a3a1a" stroke-width="0.08" opacity="0.9"/>
  <polygon points="13.49,-27.71 12.75,-26.42 11.25,-26.42 10.51,-27.71 11.25,-29.00 12.75,-29.00" fill="rgb(119,238,69)" stroke="#1a3a1a" stroke-width="0.08" opacity="0.9"/>
  <polygon points="13.91,-20.78 12.96,-19.13 11.04,-19.13 10.09,-20.78 11.04,-22.44 12.96,-22.44" fill="rgb(120,240,70)" stroke="#1a3a1a" stroke-width="0.08" opacity="0.9"/>
  <polygon points="14.05,-13.86 13.02,-12.08 10.98,-12.08 9.95,-13.86 10.98,-15.63 13.02,-15.63" fill="rgb(111,221,65)" stroke="#1a3a1a" stroke-width="0.08" opacity="0.9"/>
  <polygon points="14.16,-6.93 13.08,-5.06 10.92,-5.06 9.84,-6.93 10.92,-8.80 13.08,-8.80" fill="rgb(102,200,61)" stroke="#1a3a1a" stroke-width="0.08" opacity="0.9"/>
  <polygon points="13.88,0.00 12.94,1.63 11.06,1.63 10.12,-0.00 11.06,-1.63 12.94,-1.63" fill="rgb(95,185,57)" stroke="#1a3a1a" stroke-width="0.08" opacity="0.9"/>
  <polygon points="13.53,6.93 12.77,8.26 11.23,8.26 10.47,6.93 11.23,5.60 12.77,5.60" fill="rgb(98,192,59)" stroke="#1a3a1a" stroke-width="0.08" opacity="0.9"/>
  <polygon points="13.46,13.86 12.73,15.12 11.27,15.12 10.54,13.86 11.27,12.60 12.73,12.60" fill="rgb(91,175,55)" stroke="#1a3a1a" stroke-width="0.08" opacity="0.9"/>
  <polygon points="13.72,20.78 12.86,22.28 11.14,22.28 10.28,20.78 11.14,19.29 12.86,19.29" fill="rgb(84,159,52)" stroke="#1a3a1a" stroke-width="0.08" opacity="0.9"/>
  <polygon points="13.42,27.71 12.71,28.94 11.29,28.94 10.58,27.71 11.29,26.49 12.71,26.49" fill="rgb(74,136,47)" stroke="#1a3a1a" stroke-width="0.08" opacity="0.9"/>
  <polygon points="13.34,34.64 12.67,35.80 11.33,35.80 10.66,34.64 11.33,33.48 12.67,33.48" fill="rgb(73,134,46)" stroke="#1a3a1a" stroke-width="0.08" opacity="0.9"/>
  <polygon points="19.48,-31.18 18.74,-29.90 17.26,-29.90 16.52,-31.18 17.26,-32.46 18.74,-32.46" fill="rgb(107,210,63)" stroke="#1a3a1a" stroke-width="0.08" opacity="0.9"/>
  <polygon points="19.47,-24.25 18.74,-22.97 17.26,-22.97 16.53,-24.25 17.26,-25.52 18.74,-25.52" fill="rgb(110,218,65)" stroke="#1a3a1a" stroke-width="0.08" opacity="0.9"/>
  <polygon points="19.99,-17.32 18.99,-15.60 17.01,-15.60 16.01,-17.32 17.01,-19.04 18.99,-19.04" fill="rgb(112,223,66)" stroke="#1a3a1a" stroke-width="0.08" opacity="0.9"/>
  <polygon points="19.95,-10.39 18.98,-8.70 17.02,-8.70 16.05,-10.39 17.02,-12.08 18.98,-12.08" fill="rgb(100,196,60)" stroke="#1a3a1a" stroke-width="0.08" opacity="0.9"/>
  <polygon points="20.00,-3.46 19.00,-1.74 17.00,-1.74 16.00,-3.46 17.00,-5.19 19.00,-5.19" fill="rgb(95,184,57)" stroke="#1a3a1a" stroke-width="0.08" opacity="0.9"/>
  <polygon points="19.56,3.46 18.78,4.82 17.22,4.82 16.44,3.46 17.22,2.11 18.78,2.11" fill="rgb(99,194,59)" stroke="#1a3a1a" stroke-width="0.08" opacity="0.9"/>
  <polygon points="19.10,10.39 18.55,11.34 17.45,11.34 16.90,10.39 17.45,9.44 18.55,9.44" fill="rgb(103,202,61)" stroke="#1a3a1a" stroke-width="0.08" opacity="0.9"/>
  <polygon points="19.30,17.32 18.65,18.45 17.35,18.45 16.70,17.32 17.35,16.20 18.65,16.20" fill="rgb(84,159,52)" stroke="#1a3a1a" stroke-width="0.08" opacity="0.9"/>
  <polygon points="19.47,24.25 18.73,25.52 17.27,25.52 16.53,24.25 17.27,22.98 18.73,22.98" fill="rgb(70,129,45)" stroke="#1a3a1a" stroke-width="0.08" opacity="0.9"/>
  <polygon points="19.19,31.18 18.60,32.21 17.40,32.21 16.81,31.18 17.40,30.14 18.60,30.14" fill="rgb(67,122,43)" stroke="#1a3a1a" stroke-width="0.08" opacity="0.9"/>
  <polygon points="25.42,-27.71 24.71,-26.48 23.29,-26.48 22.58,-27.71 23.29,-28.94 24.71,-28.94" fill="rgb(94,182,57)" stroke="#1a3a1a" stroke-width="0.08" opacity="0.9"/>
  <polygon points="25.62,-20.78 24.81,-19.38 23.19,-19.38 22.38,-20.78 23.19,-22.19 24.81,-22.19" fill="rgb(98,191,59)" stroke="#1a3a1a" stroke-width="0.08" opacity="0.9"/>
  <polygon points="25.90,-13.86 24.95,-12.21 23.05,-12.21 22.10,-13.86 23.05,-15.50 24.95,-15.50" fill="rgb(97,189,58)" stroke="#1a3a1a" stroke-width="0.08" opacity="0.9"/>
  <polygon points="25.87,-6.93 24.93,-5.31 23.07,-5.31 22.13,-6.93 23.07,-8.54 24.93,-8.54" fill="rgb(84,159,52)" stroke="#1a3a1a" stroke-width="0.08" opacity="0.9"/>
  <polygon points="25.81,0.00 24.91,1.57 23.09,1.57 22.19,-0.00 23.09,-1.57 24.91,-1.57" fill="rgb(90,174,55)" stroke="#1a3a1a" stroke-width="0.08" opacity="0.9"/>
  <polygon points="25.44,6.93 24.72,8.18 23.28,8.18 22.56,6.93 23.28,5.68 24.72,5.68" fill="rgb(95,185,57)" stroke="#1a3a1a" stroke-width="0.08" opacity="0.9"/>
  <polygon points="25.08,13.86 24.54,14.79 23.46,14.79 22.92,13.86 23.46,12.92 24.54,12.92" fill="rgb(89,172,54)" stroke="#1a3a1a" stroke-width="0.08" opacity="0.9"/>
  <polygon points="24.76,20.78 24.38,21.45 23.62,21.45 23.24,20.78 23.62,20.12 24.38,20.12" fill="rgb(78,146,49)" stroke="#1a3a1a" stroke-width="0.08" opacity="0.9"/>
  <polygon points="25.14,27.71 24.57,28.70 23.43,28.70 22.86,27.71 23.43,26.73 24.57,26.73" fill="rgb(70,128,45)" stroke="#1a3a1a" stroke-width="0.08" opacity="0.9"/>
  <polygon points="31.80,-24.25 30.90,-22.69 29.10,-22.69 28.20,-24.25 29.10,-25.80 30.90,-25.80" fill="rgb(89,171,54)" stroke="#1a3a1a" stroke-width="0.08" opacity="0.9"/>
  <polygon points="31.86,-17.32 30.93,-15.71 29.07,-15.71 28.14,-17.32 29.07,-18.93 30.93,-18.93" fill="rgb(84,160,52)" stroke="#1a3a1a" stroke-width="0.08" opacity="0.9"/>
  <polygon points="31.87,-10.39 30.94,-8.77 29.06,-8.77 28.13,-10.39 29.06,-12.01 30.94,-12.01" fill="rgb(80,152,50)" stroke="#1a3a1a" stroke-width="0.08" opacity="0.9"/>
  <polygon points="31.42,-3.46 30.71,-2.23 29.29,-2.23 28.58,-3.46 29.29,-4.70 30.71,-4.70" fill="rgb(85,161,52)" stroke="#1a3a1a" stroke-width="0.08" opacity="0.9"/>
  <polygon points="31.43,3.46 30.71,4.70 29.29,4.70 28.57,3.46 29.29,2.23 30.71,2.23" fill="rgb(83,158,51)" stroke="#1a3a1a" stroke-width="0.08" opacity="0.9"/>
  <polygon points="31.06,10.39 30.53,11.31 29.47,11.31 28.94,10.39 29.47,9.48 30.53,9.48" fill="rgb(92,177,56)" stroke="#1a3a1a" stroke-width="0.08" opacity="0.9"/>
  <polygon points="30.86,17.32 30.43,18.06 29.57,18.06 29.14,17.32 29.57,16.58 30.43,16.58" fill="rgb(82,154,51)" stroke="#1a3a1a" stroke-width="0.08" opacity="0.9"/>
  <polygon points="31.03,24.25 30.52,25.14 29.48,25.14 28.97,24.25 29.48,23.36 30.52,23.36" fill="rgb(66,119,43)" stroke="#1a3a1a" stroke-width="0.08" opacity="0.9"/>
  <polygon points="38.16,-20.78 37.08,-18.91 34.92,-18.91 33.84,-20.78 34.92,-22.66 37.08,-22.66" fill="rgb(89,170,54)" stroke="#1a3a1a" stroke-width="0.08" opacity="0.9"/>
  <polygon points="38.12,-13.86 37.06,-12.02 34.94,-12.02 33.88,-13.86 34.94,-15.69 37.06,-15.69" fill="rgb(87,167,53)" stroke="#1a3a1a" stroke-width="0.08" opacity="0.9"/>
  <polygon points="37.35,-6.93 36.68,-5.76 35.32,-5.76 34.65,-6.93 35.32,-8.10 36.68,-8.10" fill="rgb(86,163,53)" stroke="#1a3a1a" stroke-width="0.08" opacity="0.9"/>
  <polygon points="36.90,0.00 36.45,0.78 35.55,0.78 35.10,-0.00 35.55,-0.78 36.45,-0.78" fill="rgb(85,163,52)" stroke="#1a3a1a" stroke-width="0.08" opacity="0.9"/>
  <polygon points="36.83,6.93 36.42,7.65 35.58,7.65 35.17,6.93 35.58,6.21 36.42,6.21" fill="rgb(80,151,50)" stroke="#1a3a1a" stroke-width="0.08" opacity="0.9"/>
  <polygon points="36.76,13.86 36.38,14.51 35.62,14.51 35.24,13.86 35.62,13.20 36.38,13.20" fill="rgb(85,163,52)" stroke="#1a3a1a" stroke-width="0.08" opacity="0.9"/>
  <polygon points="36.84,20.78 36.42,21.52 35.58,21.52 35.16,20.78 35.58,20.05 36.42,20.05" fill="rgb(75,140,47)" stroke="#1a3a1a" stroke-width="0.08" opacity="0.9"/>
  <text x="-36.00" y="-20.78" font-size="0.88" fill="#aaa" text-anchor="middle" dominant-baseline="central">5.8</text>
  <text x="-36.00" y="-13.86" font-size="0.88" fill="#aaa" text-anchor="middle" dominant-baseline="central">6.2</text>
  <text x="-36.00" y="-6.93" font-size="0.88" fill="#aaa" text-anchor="middle" dominant-baseline="central">9.1</text>
  <text x="-36.00" y="0.00" font-size="0.88" fill="#aaa" text-anchor="middle" dominant-baseline="central">9.2</text>
  <text x="-36.00" y="6.93" font-size="0.88" fill="#aaa" text-anchor="middle" dominant-baseline="central">9.3</text>
  <text x="-36.00" y="13.86" font-size="0.88" fill="#aaa" text-anchor="middle" dominant-baseline="central">10.5</text>
  <text x="-36.00" y="20.78" font-size="0.88" fill="#aaa" text-anchor="middle" dominant-baseline="central">10.2</text>
  <text x="-30.00" y="-24.25" font-size="0.88" fill="#aaa" text-anchor="middle" dominant-baseline="central">9.3</text>
  <text x="-30.00" y="-17.32" font-size="0.88" fill="#aaa" text-anchor="middle" dominant-baseline="central">7.7</text>
  <text x="-30.00" y="-10.39" font-size="0.88" fill="#aaa" text-anchor="middle" dominant-baseline="central">7.7</text>
  <text x="-30.00" y="-3.46" font-size="0.88" fill="#aaa" text-anchor="middle" dominant-baseline="central">7.7</text>
  <text x="-30.00" y="3.46" font-size="0.88" fill="#aaa" text-anchor="middle" dominant-baseline="central">7.0</text>
  <text x="-30.00" y="10.39" font-size="0.88" fill="#aaa" text-anchor="middle" dominant-baseline="central">8.6</text>
  <text x="-30.00" y="17.32" font-size="0.88" fill="#aaa" text-anchor="middle" dominant-baseline="central">9.1</text>
  <text x="-30.00" y="24.25" font-size="0.88" fill="#aaa" text-anchor="middle" dominant-baseline="central">9.6</text>
  <text x="-24.00" y="-27.71" font-size="0.88" fill="#aaa" text-anchor="middle" dominant-baseline="central">10.1</text>
  <text x="-24.00" y="-20.78" font-size="0.88" fill="#aaa" text-anchor="middle" dominant-baseline="central">10.5</text>
  <text x="-24.00" y="-13.86" font-size="0.88" fill="#aaa" text-anchor="middle" dominant-baseline="central">9.3</text>
  <text x="-24.00" y="-6.93" font-size="0.88" fill="#aaa" text-anchor="middle" dominant-baseline="central">6.8</text>
  <text x="-24.00" y="0.00" font-size="0.88" fill="#aaa" text-anchor="middle" dominant-baseline="central">5.6</text>
  <text x="-24.00" y="6.93" font-size="0.88" fill="#aaa" text-anchor="middle" dominant-baseline="central">7.1</text>
  <text x="-24.00" y="13.86" font-size="0.88" fill="#aaa" text-anchor="middle" dominant-baseline="central">7.5</text>
  <text x="-24.00" y="20.78" font-size="0.88" fill="#aaa" text-anchor="middle" dominant-baseline="central">8.8</text>
  <text x="-24.00" y="27.71" font-size="0.88" fill="#aaa" text-anchor="middle" dominant-baseline="central">9.2</text>
  <text x="-18.00" y="-31.18" font-size="0.88" fill="#aaa" text-anchor="middle" dominant-baseline="central">9.6</text>
  <text x="-18.00" y="-24.25" font-size="0.88" fill="#aaa" text-anchor="middle" dominant-baseline="central">10.7</text>
  <text x="-18.00" y="-17.32" font-size="0.88" fill="#aaa" text-anchor="middle" dominant-baseline="central">11.7</text>
  <text x="-18.00" y="-10.39" font-size="0.88" fill="#aaa" text-anchor="middle" dominant-baseline="central">9.2</text>
  <text x="-18.00" y="-3.46" font-size="0.88" fill="#aaa" text-anchor="middle" dominant-baseline="central">7.2</text>
  <text x="-18.00" y="3.46" font-size="0.88" fill="#aaa" text-anchor="middle" dominant-baseline="central">5.2</text>
  <text x="-18.00" y="10.39" font-size="0.88" fill="#aaa" text-anchor="middle" dominant-baseline="central">6.1</text>
  <text x="-18.00" y="17.32" font-size="0.88" fill="#aaa" text-anchor="middle" dominant-baseline="central">7.6</text>
  <text x="-18.00" y="24.25" font-size="0.88" fill="#aaa" text-anchor="middle" dominant-baseline="central">8.9</text>
  <text x="-18.00" y="31.18" font-size="0.88" fill="#aaa" text-anchor="middle" dominant-baseline="central">9.0</text>
  <text x="-12.00" y="-34.64" font-size="0.88" fill="#aaa" text-anchor="middle" dominant-baseline="central">10.7</text>
  <text x="-12.00" y="-27.71" font-size="0.88" fill="#aaa" text-anchor="middle" dominant-baseline="central">12.1</text>
  <text x="-12.00" y="-20.78" font-size="0.88" fill="#aaa" text-anchor="middle" dominant-baseline="central">11.1</text>
  <text x="-12.00" y="-13.86" font-size="0.88" fill="#aaa" text-anchor="middle" dominant-baseline="central">11.0</text>
  <text x="-12.00" y="-6.93" font-size="0.88" fill="#aaa" text-anchor="middle" dominant-baseline="central">10.5</text>
  <text x="-12.00" y="0.00" font-size="0.88" fill="#aaa" text-anchor="middle" dominant-baseline="central">7.5</text>
  <text x="-12.00" y="6.93" font-size="0.88" fill="#aaa" text-anchor="middle" dominant-baseline="central">5.7</text>
  <text x="-12.00" y="13.86" font-size="0.88" fill="#aaa" text-anchor="middle" dominant-baseline="central">6.6</text>
  <text x="-12.00" y="20.78" font-size="0.88" fill="#aaa" text-anchor="middle" dominant-baseline="central">6.4</text>
  <text x="-12.00" y="27.71" font-size="0.88" fill="#aaa" text-anchor="middle" dominant-baseline="central">7.2</text>
  <text x="-12.00" y="34.64" font-size="0.88" fill="#aaa" text-anchor="middle" dominant-baseline="central">8.1</text>
  <text x="-6.00" y="-38.11" font-size="0.88" fill="#aaa" text-anchor="middle" dominant-baseline="central">12.0</text>
  <text x="-6.00" y="-31.18" font-size="0.88" fill="#aaa" text-anchor="middle" dominant-baseline="central">12.6</text>
  <text x="-6.00" y="-24.25" font-size="0.88" fill="#aaa" text-anchor="middle" dominant-baseline="central">12.2</text>
  <text x="-6.00" y="-17.32" font-size="0.88" fill="#aaa" text-anchor="middle" dominant-baseline="central">11.4</text>
  <text x="-6.00" y="-10.39" font-size="0.88" fill="#aaa" text-anchor="middle" dominant-baseline="central">11.4</text>
  <text x="-6.00" y="-3.46" font-size="0.88" fill="#aaa" text-anchor="middle" dominant-baseline="central">11.7</text>
  <text x="-6.00" y="3.46" font-size="0.88" fill="#aaa" text-anchor="middle" dominant-baseline="central">9.4</text>
  <text x="-6.00" y="10.39" font-size="0.88" fill="#aaa" text-anchor="middle" dominant-baseline="central">7.2</text>
  <text x="-6.00" y="17.32" font-size="0.88" fill="#aaa" text-anchor="middle" dominant-baseline="central">6.0</text>
  <text x="-6.00" y="24.25" font-size="0.88" fill="#aaa" text-anchor="middle" dominant-baseline="central">4.8</text>
  <text x="-6.00" y="31.18" font-size="0.88" fill="#aaa" text-anchor="middle" dominant-baseline="central">4.9</text>
  <text x="-6.00" y="38.11" font-size="0.88" fill="#aaa" text-anchor="middle" dominant-baseline="central">7.8</text>
  <text x="0.00" y="-41.57" font-size="0.88" fill="#aaa" text-anchor="middle" dominant-baseline="central">11.1</text>
  <text x="0.00" y="-34.64" font-size="0.88" fill="#aaa" text-anchor="middle" dominant-baseline="central">12.6</text>
  <text x="0.00" y="-27.71" font-size="0.88" fill="#aaa" text-anchor="middle" dominant-baseline="central">13.4</text>
  <text x="0.00" y="-20.78" font-size="0.88" fill="#aaa" text-anchor="middle" dominant-baseline="central">13.3</text>
  <text x="0.00" y="-13.86" font-size="0.88" fill="#aaa" text-anchor="middle" dominant-baseline="central">12.8</text>
  <text x="0.00" y="-6.93" font-size="0.88" fill="#aaa" text-anchor="middle" dominant-baseline="central">10.7</text>
  <text x="0.00" y="0.00" font-size="0.88" fill="#aaa" text-anchor="middle" dominant-baseline="central">10.0</text>
  <text x="0.00" y="6.93" font-size="0.88" fill="#aaa" text-anchor="middle" dominant-baseline="central">8.9</text>
  <text x="0.00" y="13.86" font-size="0.88" fill="#aaa" text-anchor="middle" dominant-baseline="central">7.9</text>
  <text x="0.00" y="20.78" font-size="0.88" fill="#aaa" text-anchor="middle" dominant-baseline="central">7.2</text>
  <text x="0.00" y="27.71" font-size="0.88" fill="#aaa" text-anchor="middle" dominant-baseline="central">4.8</text>
  <text x="0.00" y="34.64" font-size="0.88" fill="#aaa" text-anchor="middle" dominant-baseline="central">7.2</text>
  <text x="0.00" y="41.57" font-size="0.88" fill="#aaa" text-anchor="middle" dominant-baseline="central">8.8</text>
  <text x="6.00" y="-38.11" font-size="0.88" fill="#aaa" text-anchor="middle" dominant-baseline="central">12.2</text>
  <text x="6.00" y="-31.18" font-size="0.88" fill="#aaa" text-anchor="middle" dominant-baseline="central">14.9</text>
  <text x="6.00" y="-24.25" font-size="0.88" fill="#aaa" text-anchor="middle" dominant-baseline="central">15.6</text>
  <text x="6.00" y="-17.32" font-size="0.88" fill="#aaa" text-anchor="middle" dominant-baseline="central">15.1</text>
  <text x="6.00" y="-10.39" font-size="0.88" fill="#aaa" text-anchor="middle" dominant-baseline="central">14.0</text>
  <text x="6.00" y="-3.46" font-size="0.88" fill="#aaa" text-anchor="middle" dominant-baseline="central">9.6</text>
  <text x="6.00" y="3.46" font-size="0.88" fill="#aaa" text-anchor="middle" dominant-baseline="central">9.0</text>
  <text x="6.00" y="10.39" font-size="0.88" fill="#aaa" text-anchor="middle" dominant-baseline="central">8.4</text>
  <text x="6.00" y="17.32" font-size="0.88" fill="#aaa" text-anchor="middle" dominant-baseline="central">8.7</text>
  <text x="6.00" y="24.25" font-size="0.88" fill="#aaa" text-anchor="middle" dominant-baseline="central">8.2</text>
  <text x="6.00" y="31.18" font-size="0.88" fill="#aaa" text-anchor="middle" dominant-baseline="central">7.3</text>
  <text x="6.00" y="38.11" font-size="0.88" fill="#aaa" text-anchor="middle" dominant-baseline="central">8.7</text>
  <text x="12.00" y="-34.64" font-size="0.88" fill="#aaa" text-anchor="middle" dominant-baseline="central">13.2</text>
  <text x="12.00" y="-27.71" font-size="0.88" fill="#aaa" text-anchor="middle" dominant-baseline="central">16.1</text>
  <text x="12.00" y="-20.78" font-size="0.88" fill="#aaa" text-anchor="middle" dominant-baseline="central">16.3</text>
  <text x="12.00" y="-13.86" font-size="0.88" fill="#aaa" text-anchor="middle" dominant-baseline="central">14.6</text>
  <text x="12.00" y="-6.93" font-size="0.88" fill="#aaa" text-anchor="middle" dominant-baseline="central">12.7</text>
  <text x="12.00" y="0.00" font-size="0.88" fill="#aaa" text-anchor="middle" dominant-baseline="central">11.3</text>
  <text x="12.00" y="6.93" font-size="0.88" fill="#aaa" text-anchor="middle" dominant-baseline="central">12.0</text>
  <text x="12.00" y="13.86" font-size="0.88" fill="#aaa" text-anchor="middle" dominant-baseline="central">10.5</text>
  <text x="12.00" y="20.78" font-size="0.88" fill="#aaa" text-anchor="middle" dominant-baseline="central">9.0</text>
  <text x="12.00" y="27.71" font-size="0.88" fill="#aaa" text-anchor="middle" dominant-baseline="central">6.9</text>
  <text x="12.00" y="34.64" font-size="0.88" fill="#aaa" text-anchor="middle" dominant-baseline="central">6.8</text>
  <text x="18.00" y="-31.18" font-size="0.88" fill="#aaa" text-anchor="middle" dominant-baseline="central">13.7</text>
  <text x="18.00" y="-24.25" font-size="0.88" fill="#aaa" text-anchor="middle" dominant-baseline="central">14.4</text>
  <text x="18.00" y="-17.32" font-size="0.88" fill="#aaa" text-anchor="middle" dominant-baseline="central">14.8</text>
  <text x="18.00" y="-10.39" font-size="0.88" fill="#aaa" text-anchor="middle" dominant-baseline="central">12.4</text>
  <text x="18.00" y="-3.46" font-size="0.88" fill="#aaa" text-anchor="middle" dominant-baseline="central">11.3</text>
  <text x="18.00" y="3.46" font-size="0.88" fill="#aaa" text-anchor="middle" dominant-baseline="central">12.2</text>
  <text x="18.00" y="10.39" font-size="0.88" fill="#aaa" text-anchor="middle" dominant-baseline="central">13.0</text>
  <text x="18.00" y="17.32" font-size="0.88" fill="#aaa" text-anchor="middle" dominant-baseline="central">9.0</text>
  <text x="18.00" y="24.25" font-size="0.88" fill="#aaa" text-anchor="middle" dominant-baseline="central">6.3</text>
  <text x="18.00" y="31.18" font-size="0.88" fill="#aaa" text-anchor="middle" dominant-baseline="central">5.6</text>
  <text x="24.00" y="-27.71" font-size="0.88" fill="#aaa" text-anchor="middle" dominant-baseline="central">11.1</text>
  <text x="24.00" y="-20.78" font-size="0.88" fill="#aaa" text-anchor="middle" dominant-baseline="central">11.9</text>
  <text x="24.00" y="-13.86" font-size="0.88" fill="#aaa" text-anchor="middle" dominant-baseline="central">11.8</text>
  <text x="24.00" y="-6.93" font-size="0.88" fill="#aaa" text-anchor="middle" dominant-baseline="central">9.0</text>
  <text x="24.00" y="0.00" font-size="0.88" fill="#aaa" text-anchor="middle" dominant-baseline="central">10.4</text>
  <text x="24.00" y="6.93" font-size="0.88" fill="#aaa" text-anchor="middle" dominant-baseline="central">11.4</text>
  <text x="24.00" y="13.86" font-size="0.88" fill="#aaa" text-anchor="middle" dominant-baseline="central">10.2</text>
  <text x="24.00" y="20.78" font-size="0.88" fill="#aaa" text-anchor="middle" dominant-baseline="central">7.8</text>
  <text x="24.00" y="27.71" font-size="0.88" fill="#aaa" text-anchor="middle" dominant-baseline="central">6.3</text>
  <text x="30.00" y="-24.25" font-size="0.88" fill="#aaa" text-anchor="middle" dominant-baseline="central">10.1</text>
  <text x="30.00" y="-17.32" font-size="0.88" fill="#aaa" text-anchor="middle" dominant-baseline="central">9.1</text>
  <text x="30.00" y="-10.39" font-size="0.88" fill="#aaa" text-anchor="middle" dominant-baseline="central">8.3</text>
  <text x="30.00" y="-3.46" font-size="0.88" fill="#aaa" text-anchor="middle" dominant-baseline="central">9.2</text>
  <text x="30.00" y="3.46" font-size="0.88" fill="#aaa" text-anchor="middle" dominant-baseline="central">9.0</text>
  <text x="30.00" y="10.39" font-size="0.88" fill="#aaa" text-anchor="middle" dominant-baseline="central">10.6</text>
  <text x="30.00" y="17.32" font-size="0.88" fill="#aaa" text-anchor="middle" dominant-baseline="central">8.6</text>
  <text x="30.00" y="24.25" font-size="0.88" fill="#aaa" text-anchor="middle" dominant-baseline="central">5.4</text>
  <text x="36.00" y="-20.78" font-size="0.88" fill="#aaa" text-anchor="middle" dominant-baseline="central">10.0</text>
  <text x="36.00" y="-13.86" font-size="0.88" fill="#aaa" text-anchor="middle" dominant-baseline="central">9.7</text>
  <text x="36.00" y="-6.93" font-size="0.88" fill="#aaa" text-anchor="middle" dominant-baseline="central">9.4</text>
  <text x="36.00" y="0.00" font-size="0.88" fill="#aaa" text-anchor="middle" dominant-baseline="central">9.4</text>
  <text x="36.00" y="6.93" font-size="0.88" fill="#aaa" text-anchor="middle" dominant-baseline="central">8.3</text>
  <text x="36.00" y="13.86" font-size="0.88" fill="#aaa" text-anchor="middle" dominant-baseline="central">9.3</text>
  <text x="36.00" y="20.78" font-size="0.88" fill="#aaa" text-anchor="middle" dominant-baseline="central">7.3</text>
</svg>
